<svg width="169" height="28" viewBox="0 0 169 28" fill="none" xmlns="http://www.w3.org/2000/svg">
<rect width="169" height="28" rx="14" fill="url(#paint0_linear)"/>
<path d="M40.4548 16.75C40.5681 16.83 40.7348 16.91 40.9548 16.99C41.1814 17.0633 41.4381 17.1 41.7248 17.1C42.0314 17.1 42.2748 17.0467 42.4548 16.94C42.6414 16.8267 42.7814 16.6633 42.8748 16.45C42.9748 16.23 43.0381 15.96 43.0648 15.64C43.0981 15.3133 43.1148 14.9367 43.1148 14.51V10.9H44.2448V14.51C44.2448 15.05 44.2181 15.5433 44.1648 15.99C44.1114 16.43 43.9981 16.8067 43.8248 17.12C43.6514 17.4333 43.3981 17.6767 43.0648 17.85C42.7314 18.0233 42.2848 18.11 41.7248 18.11C41.1248 18.11 40.6114 17.9633 40.1848 17.67L40.4548 16.75ZM48.5676 18.05C48.0609 18.05 47.5976 17.95 47.1776 17.75C46.7642 17.5433 46.4076 17.2733 46.1076 16.94C45.8076 16.6 45.5742 16.2133 45.4076 15.78C45.2476 15.3467 45.1676 14.9033 45.1676 14.45C45.1676 13.9767 45.2542 13.5233 45.4276 13.09C45.6009 12.6567 45.8376 12.2733 46.1376 11.94C46.4442 11.6067 46.8042 11.3433 47.2176 11.15C47.6376 10.95 48.0942 10.85 48.5876 10.85C49.0942 10.85 49.5542 10.9567 49.9676 11.17C50.3876 11.3767 50.7442 11.65 51.0376 11.99C51.3376 12.33 51.5676 12.7167 51.7276 13.15C51.8942 13.5767 51.9776 14.0133 51.9776 14.46C51.9776 14.9333 51.8909 15.3867 51.7176 15.82C51.5509 16.2533 51.3142 16.6367 51.0076 16.97C50.7009 17.2967 50.3376 17.56 49.9176 17.76C49.5042 17.9533 49.0542 18.05 48.5676 18.05ZM46.3076 14.45C46.3076 14.7833 46.3609 15.1067 46.4676 15.42C46.5742 15.7333 46.7242 16.01 46.9176 16.25C47.1176 16.49 47.3576 16.6833 47.6376 16.83C47.9176 16.97 48.2309 17.04 48.5776 17.04C48.9376 17.04 49.2542 16.9667 49.5276 16.82C49.8076 16.6667 50.0442 16.4667 50.2376 16.22C50.4309 15.9733 50.5776 15.6967 50.6776 15.39C50.7776 15.0833 50.8276 14.77 50.8276 14.45C50.8276 14.11 50.7742 13.7867 50.6676 13.48C50.5609 13.1667 50.4076 12.8933 50.2076 12.66C50.0142 12.42 49.7776 12.23 49.4976 12.09C49.2242 11.9433 48.9176 11.87 48.5776 11.87C48.2176 11.87 47.8976 11.9467 47.6176 12.1C47.3376 12.2467 47.1009 12.44 46.9076 12.68C46.7142 12.92 46.5642 13.1967 46.4576 13.51C46.3576 13.8167 46.3076 14.13 46.3076 14.45ZM52.9871 18V10.9H54.1071V18H52.9871ZM56.6817 13V18H55.5617V10.9H56.4417L60.5017 16.02V10.91H61.6317V18H60.7017L56.6817 13ZM65.3984 18V10.9H66.5184V17.01H70.3284V18H65.3984ZM71.0883 18V10.9H72.2083V18H71.0883ZM74.1129 10.9L76.2529 16.59L78.3829 10.9H79.5729L76.7329 18H75.7729L72.9229 10.9H74.1129ZM85.1602 17.01V18H80.2902V10.9H85.0702V11.89H81.4102V13.91H84.5802V14.84H81.4102V17.01H85.1602ZM92.6863 12.57C92.6197 12.4967 92.523 12.42 92.3963 12.34C92.2697 12.2533 92.1197 12.1733 91.9463 12.1C91.7797 12.0267 91.593 11.9667 91.3863 11.92C91.1863 11.8733 90.9797 11.85 90.7663 11.85C90.293 11.85 89.943 11.9367 89.7163 12.11C89.4963 12.2833 89.3863 12.5233 89.3863 12.83C89.3863 13.0033 89.4197 13.1467 89.4863 13.26C89.5597 13.3667 89.6697 13.4633 89.8163 13.55C89.963 13.63 90.1463 13.7033 90.3663 13.77C90.5863 13.83 90.843 13.8967 91.1363 13.97C91.4963 14.0567 91.8197 14.1533 92.1063 14.26C92.3997 14.3667 92.6463 14.4967 92.8463 14.65C93.0463 14.8033 93.1997 14.9933 93.3063 15.22C93.4197 15.44 93.4763 15.71 93.4763 16.03C93.4763 16.39 93.4063 16.7 93.2663 16.96C93.133 17.22 92.9463 17.4333 92.7063 17.6C92.473 17.76 92.1997 17.88 91.8863 17.96C91.573 18.0333 91.2363 18.07 90.8763 18.07C90.3363 18.07 89.813 17.99 89.3063 17.83C88.8063 17.6633 88.353 17.4233 87.9463 17.11L88.4563 16.15C88.543 16.2367 88.6663 16.3333 88.8263 16.44C88.993 16.5467 89.183 16.6467 89.3963 16.74C89.6163 16.8267 89.853 16.9033 90.1063 16.97C90.3597 17.03 90.623 17.06 90.8963 17.06C91.3363 17.06 91.6763 16.9833 91.9163 16.83C92.1563 16.6767 92.2763 16.45 92.2763 16.15C92.2763 15.97 92.2297 15.82 92.1363 15.7C92.0497 15.58 91.923 15.4767 91.7563 15.39C91.5897 15.2967 91.3863 15.2133 91.1463 15.14C90.9063 15.0667 90.633 14.99 90.3263 14.91C89.973 14.8167 89.663 14.72 89.3963 14.62C89.1363 14.5133 88.9197 14.3867 88.7463 14.24C88.573 14.0933 88.4397 13.9233 88.3463 13.73C88.2597 13.53 88.2163 13.29 88.2163 13.01C88.2163 12.6633 88.283 12.3567 88.4163 12.09C88.5497 11.8167 88.7297 11.59 88.9563 11.41C89.1897 11.2233 89.463 11.0833 89.7763 10.99C90.0897 10.8967 90.4297 10.85 90.7963 10.85C91.2763 10.85 91.7197 10.9267 92.1263 11.08C92.533 11.2333 92.8897 11.4233 93.1963 11.65L92.6863 12.57ZM99.3196 17.01V18H94.4496V10.9H99.2296V11.89H95.5696V13.91H98.7396V14.84H95.5696V17.01H99.3196ZM104.379 12.57C104.312 12.4967 104.215 12.42 104.089 12.34C103.962 12.2533 103.812 12.1733 103.639 12.1C103.472 12.0267 103.285 11.9667 103.079 11.92C102.879 11.8733 102.672 11.85 102.459 11.85C101.985 11.85 101.635 11.9367 101.409 12.11C101.189 12.2833 101.079 12.5233 101.079 12.83C101.079 13.0033 101.112 13.1467 101.179 13.26C101.252 13.3667 101.362 13.4633 101.509 13.55C101.655 13.63 101.839 13.7033 102.059 13.77C102.279 13.83 102.535 13.8967 102.829 13.97C103.189 14.0567 103.512 14.1533 103.799 14.26C104.092 14.3667 104.339 14.4967 104.539 14.65C104.739 14.8033 104.892 14.9933 104.999 15.22C105.112 15.44 105.169 15.71 105.169 16.03C105.169 16.39 105.099 16.7 104.959 16.96C104.825 17.22 104.639 17.4333 104.399 17.6C104.165 17.76 103.892 17.88 103.579 17.96C103.265 18.0333 102.929 18.07 102.569 18.07C102.029 18.07 101.505 17.99 100.999 17.83C100.499 17.6633 100.045 17.4233 99.6385 17.11L100.149 16.15C100.235 16.2367 100.359 16.3333 100.519 16.44C100.685 16.5467 100.875 16.6467 101.089 16.74C101.309 16.8267 101.545 16.9033 101.799 16.97C102.052 17.03 102.315 17.06 102.589 17.06C103.029 17.06 103.369 16.9833 103.609 16.83C103.849 16.6767 103.969 16.45 103.969 16.15C103.969 15.97 103.922 15.82 103.829 15.7C103.742 15.58 103.615 15.4767 103.449 15.39C103.282 15.2967 103.079 15.2133 102.839 15.14C102.599 15.0667 102.325 14.99 102.019 14.91C101.665 14.8167 101.355 14.72 101.089 14.62C100.829 14.5133 100.612 14.3867 100.439 14.24C100.265 14.0933 100.132 13.9233 100.039 13.73C99.9519 13.53 99.9085 13.29 99.9085 13.01C99.9085 12.6633 99.9752 12.3567 100.109 12.09C100.242 11.8167 100.422 11.59 100.649 11.41C100.882 11.2233 101.155 11.0833 101.469 10.99C101.782 10.8967 102.122 10.85 102.489 10.85C102.969 10.85 103.412 10.9267 103.819 11.08C104.225 11.2333 104.582 11.4233 104.889 11.65L104.379 12.57ZM110.342 12.57C110.275 12.4967 110.178 12.42 110.052 12.34C109.925 12.2533 109.775 12.1733 109.602 12.1C109.435 12.0267 109.248 11.9667 109.042 11.92C108.842 11.8733 108.635 11.85 108.422 11.85C107.948 11.85 107.598 11.9367 107.372 12.11C107.152 12.2833 107.042 12.5233 107.042 12.83C107.042 13.0033 107.075 13.1467 107.142 13.26C107.215 13.3667 107.325 13.4633 107.472 13.55C107.618 13.63 107.802 13.7033 108.022 13.77C108.242 13.83 108.498 13.8967 108.792 13.97C109.152 14.0567 109.475 14.1533 109.762 14.26C110.055 14.3667 110.302 14.4967 110.502 14.65C110.702 14.8033 110.855 14.9933 110.962 15.22C111.075 15.44 111.132 15.71 111.132 16.03C111.132 16.39 111.062 16.7 110.922 16.96C110.788 17.22 110.602 17.4333 110.362 17.6C110.128 17.76 109.855 17.88 109.542 17.96C109.228 18.0333 108.892 18.07 108.532 18.07C107.992 18.07 107.468 17.99 106.962 17.83C106.462 17.6633 106.008 17.4233 105.602 17.11L106.112 16.15C106.198 16.2367 106.322 16.3333 106.482 16.44C106.648 16.5467 106.838 16.6467 107.052 16.74C107.272 16.8267 107.508 16.9033 107.762 16.97C108.015 17.03 108.278 17.06 108.552 17.06C108.992 17.06 109.332 16.9833 109.572 16.83C109.812 16.6767 109.932 16.45 109.932 16.15C109.932 15.97 109.885 15.82 109.792 15.7C109.705 15.58 109.578 15.4767 109.412 15.39C109.245 15.2967 109.042 15.2133 108.802 15.14C108.562 15.0667 108.288 14.99 107.982 14.91C107.628 14.8167 107.318 14.72 107.052 14.62C106.792 14.5133 106.575 14.3867 106.402 14.24C106.228 14.0933 106.095 13.9233 106.002 13.73C105.915 13.53 105.872 13.29 105.872 13.01C105.872 12.6633 105.938 12.3567 106.072 12.09C106.205 11.8167 106.385 11.59 106.612 11.41C106.845 11.2233 107.118 11.0833 107.432 10.99C107.745 10.8967 108.085 10.85 108.452 10.85C108.932 10.85 109.375 10.9267 109.782 11.08C110.188 11.2333 110.545 11.4233 110.852 11.65L110.342 12.57ZM112.105 18V10.9H113.225V18H112.105ZM117.63 18.05C117.123 18.05 116.66 17.95 116.24 17.75C115.826 17.5433 115.47 17.2733 115.17 16.94C114.87 16.6 114.636 16.2133 114.47 15.78C114.31 15.3467 114.23 14.9033 114.23 14.45C114.23 13.9767 114.316 13.5233 114.49 13.09C114.663 12.6567 114.9 12.2733 115.2 11.94C115.506 11.6067 115.866 11.3433 116.28 11.15C116.7 10.95 117.156 10.85 117.65 10.85C118.156 10.85 118.616 10.9567 119.03 11.17C119.45 11.3767 119.806 11.65 120.1 11.99C120.4 12.33 120.63 12.7167 120.79 13.15C120.956 13.5767 121.04 14.0133 121.04 14.46C121.04 14.9333 120.953 15.3867 120.78 15.82C120.613 16.2533 120.376 16.6367 120.07 16.97C119.763 17.2967 119.4 17.56 118.98 17.76C118.566 17.9533 118.116 18.05 117.63 18.05ZM115.37 14.45C115.37 14.7833 115.423 15.1067 115.53 15.42C115.636 15.7333 115.786 16.01 115.98 16.25C116.18 16.49 116.42 16.6833 116.7 16.83C116.98 16.97 117.293 17.04 117.64 17.04C118 17.04 118.316 16.9667 118.59 16.82C118.87 16.6667 119.106 16.4667 119.3 16.22C119.493 15.9733 119.64 15.6967 119.74 15.39C119.84 15.0833 119.89 14.77 119.89 14.45C119.89 14.11 119.836 13.7867 119.73 13.48C119.623 13.1667 119.47 12.8933 119.27 12.66C119.076 12.42 118.84 12.23 118.56 12.09C118.286 11.9433 117.98 11.87 117.64 11.87C117.28 11.87 116.96 11.9467 116.68 12.1C116.4 12.2467 116.163 12.44 115.97 12.68C115.776 12.92 115.626 13.1967 115.52 13.51C115.42 13.8167 115.37 14.13 115.37 14.45ZM123.169 13V18H122.049V10.9H122.929L126.989 16.02V10.91H128.119V18H127.189L123.169 13Z" fill="white"/>
<defs>
<linearGradient id="paint0_linear" x1="163.477" y1="22" x2="11.5828" y2="-19.9447" gradientUnits="userSpaceOnUse">
<stop stop-color="#0048FF"/>
<stop offset="1" stop-color="#0096FF"/>
</linearGradient>
</defs>
</svg>
